<?xml version="1.0" encoding="UTF-8" standalone="no"?>
<svg width="70px" height="52px" viewBox="0 0 70 52" version="1.1" xmlns="http://www.w3.org/2000/svg" xmlns:xlink="http://www.w3.org/1999/xlink">
    <!-- Generator: Sketch 3.8.3 (29802) - http://www.bohemiancoding.com/sketch -->
    <title>library</title>
    <desc>Created with Sketch.</desc>
    <defs></defs>
    <g id="Page-1" stroke="none" stroke-width="1" fill="none" fill-rule="evenodd">
        <g id="Desktop" transform="translate(-1093.000000, -1199.000000)" fill="#A4A3ED">
            <g id="library" transform="translate(1093.000000, 1199.000000)">
                <g id="Capa_1">
                    <g id="Group">
                        <path d="M66.4470842,4.83801296 L65.1435421,4.83801296 C65.1412743,2.53360691 65.1396112,1.1325486 65.1396112,1.1325486 C65.1388553,0.506781857 64.6314687,0 64.0057019,0 C47.247581,0 37.2555724,3.78680346 35.0108855,4.73777538 C32.7640821,3.78725702 22.7571058,0 5.97192225,0 C5.34615551,0 4.8387689,0.506933045 4.83801296,1.1325486 C4.83801296,1.1325486 4.83650108,2.53360691 4.83408207,4.83801296 L3.55291577,4.83801296 C1.59382289,4.83801296 0,6.43183585 0,8.39092873 L0,48.3045356 C0,50.2636285 1.59382289,51.8574514 3.55291577,51.8574514 L66.4470842,51.8574514 C68.4061771,51.8574514 70,50.2636285 70,48.3045356 L70,8.39092873 C70,6.43183585 68.4061771,4.83801296 66.4470842,4.83801296 L66.4470842,4.83801296 Z M62.8838877,44.757365 C48.7523542,44.9011447 39.6281641,47.7285097 36.1339093,49.0429374 L36.1339093,6.73179266 C38.5535205,5.75738661 47.8796976,2.4350324 62.8730022,2.27386609 C62.888121,16.0281857 62.9061123,39.4710799 62.8838877,44.757365 L62.8838877,44.757365 Z M33.8660907,6.72317495 L33.8660907,49.0352268 C30.3517279,47.717473 21.2211879,44.9002376 7.0937365,44.7572138 C7.07347732,39.9306911 7.08663067,19.9710151 7.10069114,6.06671706 C7.10326134,6.03542117 7.10552916,6.00397408 7.10552916,5.97192225 C7.10552916,5.9412311 7.10326134,5.91099352 7.10099352,5.88090713 C7.10220302,4.62287257 7.10356371,3.41457883 7.10477322,2.27386609 C22.0787257,2.43412527 31.4091361,5.73773218 33.8660907,6.72317495 L33.8660907,6.72317495 Z M2.26781857,48.3045356 L2.26781857,8.39092873 C2.26781857,7.68231102 2.84429806,7.10583153 3.55291577,7.10583153 L4.83181425,7.10583153 C4.82773218,11.3836933 4.8224406,17.4354428 4.81911447,23.490216 C4.81593952,29.0812959 4.81442765,34.6743413 4.81669546,38.8723758 C4.81790497,40.9723758 4.8200216,42.7235853 4.82334773,43.9512311 C4.82516199,44.5670194 4.82712743,45.0514255 4.82954644,45.3828294 C4.83468683,46.0893305 4.83650108,46.3536069 5.16956803,46.6868251 C5.38228942,46.8996976 5.67090713,47.0194384 5.97192225,47.0194384 C15.6620086,47.0194384 23.0877538,48.3427862 27.9334773,49.5896328 L3.55291577,49.5896328 C2.84429806,49.5896328 2.26781857,49.0131533 2.26781857,48.3045356 L2.26781857,48.3045356 Z M67.7321814,48.3045356 C67.7321814,49.0131533 67.1557019,49.5896328 66.4470842,49.5896328 L42.0784665,49.5896328 C46.9167819,48.3427862 54.3308855,47.0194384 64.0057019,47.0194384 C64.3067171,47.0194384 64.5953348,46.8996976 64.8080562,46.6868251 C65.1409719,46.3536069 65.1429374,46.0893305 65.1480778,45.3828294 C65.1504968,45.0515767 65.1524622,44.5670194 65.1542765,43.9512311 C65.1577538,42.7235853 65.1598704,40.9723758 65.1610799,38.8723758 C65.1634989,34.6741901 65.1618359,29.0814471 65.1586609,23.490216 C65.1551836,17.4354428 65.1500432,11.3836933 65.1458099,7.10583153 L66.4472354,7.10583153 C67.1558531,7.10583153 67.7323326,7.68231102 67.7323326,8.39092873 L67.7323326,48.3045356 L67.7321814,48.3045356 Z" id="Shape"></path>
                        <path d="M19.1236069,10.2732181 C22.9743629,10.7964795 26.5806479,11.545162 29.8422246,12.4985529 C29.9485097,12.5295464 30.0555508,12.5443629 30.1607775,12.5443629 C30.6515335,12.5443629 31.1040389,12.2230886 31.2485745,11.7284017 C31.4242549,11.1271274 31.0793952,10.4974298 30.4782721,10.3217495 C27.1087473,9.33691145 23.3911879,8.56464363 19.4288553,8.02611231 C18.8079266,7.94084233 18.2368898,8.37641469 18.1526782,8.99704104 C18.0684665,9.61766739 18.5031317,10.1890065 19.1236069,10.2732181 L19.1236069,10.2732181 Z" id="Shape"></path>
                        <path d="M10.7582289,9.52362851 C11.9588121,9.57866091 13.1657451,9.65606911 14.3454644,9.75358531 C14.3772138,9.7563067 14.4088121,9.75736501 14.440108,9.75736501 C15.0239957,9.75736501 15.5200432,9.30909287 15.5688769,8.71673866 C15.620432,8.09263499 15.1562851,7.54488121 14.5321814,7.49332613 C13.3250972,7.3936933 12.0903456,7.31447084 10.8622462,7.25807775 C10.2388985,7.23358531 9.7062635,7.71330454 9.6775378,8.3387689 C9.6488121,8.96453564 10.1327646,9.495054 10.7582289,9.52362851 L10.7582289,9.52362851 Z" id="Shape"></path>
                        <path d="M30.4785745,19.9977754 C28.1912527,19.3290713 25.7108639,18.7518359 23.1061987,18.2819438 C22.4895032,18.1708207 21.9000216,18.5803888 21.7890497,19.1966307 C21.6779266,19.8128726 22.0873434,20.4026566 22.7035853,20.5137797 C25.229784,20.96946 27.6315551,21.5280994 29.8422246,22.1742765 C29.9485097,22.2054212 30.0555508,22.2202376 30.1609287,22.2202376 C30.6516847,22.2202376 31.1040389,21.8989633 31.2487257,21.4042765 C31.424406,20.8033045 31.0795464,20.1736069 30.4785745,19.9977754 L30.4785745,19.9977754 Z" id="Shape"></path>
                        <path d="M10.7582289,19.1996544 C13.1932613,19.3113823 15.6060691,19.5118575 17.929676,19.7951836 C17.9762419,19.8009287 18.0226566,19.8038013 18.0683153,19.8038013 C18.6333045,19.8038013 19.1223974,19.3821382 19.1925486,18.8070194 C19.2682937,18.185486 18.8259179,17.619892 18.2042333,17.5441469 C15.8243844,17.2537149 13.3541253,17.0485529 10.862095,16.9341037 C10.2387473,16.90946 9.70611231,17.3893305 9.67738661,18.0147948 C9.6488121,18.6405616 10.1326134,19.1709287 10.7582289,19.1996544 L10.7582289,19.1996544 Z" id="Shape"></path>
                        <path d="M29.8422246,17.3365659 C29.9483585,17.3675594 30.0555508,17.3823758 30.1607775,17.3823758 C30.6515335,17.3823758 31.1040389,17.0612527 31.2485745,16.5664147 C31.4242549,15.9652916 31.0793952,15.335594 30.4782721,15.1597624 C29.6871058,14.9285961 28.8593521,14.7046868 28.0182937,14.4945356 C27.4114255,14.3433477 26.7951836,14.712095 26.6432397,15.3197192 C26.4914471,15.9273434 26.8607991,16.5429806 27.4684233,16.6947732 C28.2809071,16.8976674 29.0794816,17.1135637 29.8422246,17.3365659 L29.8422246,17.3365659 Z" id="Shape"></path>
                        <path d="M10.7582289,14.3616415 C14.9039525,14.5518359 18.9229806,14.9940605 22.7037365,15.6757667 C22.7717711,15.688013 22.8395032,15.6939093 22.9063283,15.6939093 C23.444406,15.6939093 23.9220086,15.3092873 24.0208855,14.7610799 C24.1320086,14.144838 23.7225918,13.555054 23.1061987,13.4439309 C19.2273218,12.7443844 15.1077538,12.2908207 10.8622462,12.0960907 C10.2388985,12.0700864 9.7062635,12.5513175 9.6775378,13.1767819 C9.6488121,13.8025486 10.1327646,14.333067 10.7582289,14.3616415 L10.7582289,14.3616415 Z" id="Shape"></path>
                        <path d="M30.4785745,24.8357883 C26.7536069,23.7470842 22.6236069,22.9214471 18.2034773,22.3821598 C17.5822462,22.3058099 17.0163499,22.7486393 16.9406048,23.370324 C16.8648596,23.9918575 17.3072354,24.5574514 17.9289201,24.6331965 C22.227041,25.1576674 26.2353348,25.9582073 29.8423758,27.0125918 C29.9486609,27.0435853 30.0557019,27.0584017 30.1610799,27.0584017 C30.6518359,27.0584017 31.1043413,26.7371274 31.2488769,26.2424406 C31.424406,25.6413175 31.0795464,25.0116199 30.4785745,24.8357883 L30.4785745,24.8357883 Z" id="Shape"></path>
                        <path d="M10.7582289,24.0376674 C11.5593737,24.074406 12.3636933,24.1211231 13.1488121,24.1760043 C13.1758747,24.1779698 13.202635,24.1788769 13.2292441,24.1788769 C13.8193305,24.1788769 14.3173434,23.721987 14.3592225,23.1241901 C14.403067,22.4994816 13.9321166,21.957473 13.3074082,21.9137797 C12.5041469,21.8575378 11.6815335,21.8097624 10.8623974,21.7721166 C10.2348164,21.7458099 9.70641469,22.2273434 9.67768898,22.8528078 C9.64896328,23.4782721 10.1326134,24.0089417 10.7582289,24.0376674 L10.7582289,24.0376674 Z" id="Shape"></path>
                        <path d="M30.4785745,34.5118143 C28.1912527,33.8431102 25.7108639,33.2658747 23.1061987,32.7959827 C22.4895032,32.6850108 21.9000216,33.0944276 21.7890497,33.7106695 C21.6779266,34.3269114 22.0873434,34.9166955 22.7035853,35.0278186 C25.229784,35.4834989 27.6315551,36.0421382 29.8422246,36.6883153 C29.9485097,36.71946 30.0555508,36.7342765 30.1609287,36.7342765 C30.6516847,36.7342765 31.1040389,36.4130022 31.2487257,35.9183153 C31.424406,35.3173434 31.0795464,34.6876458 30.4785745,34.5118143 L30.4785745,34.5118143 Z" id="Shape"></path>
                        <path d="M10.7582289,33.7136933 C13.1932613,33.8254212 15.6060691,34.0258963 17.929676,34.3092225 C17.9762419,34.3149676 18.0226566,34.3178402 18.0683153,34.3178402 C18.6333045,34.3178402 19.1223974,33.8961771 19.1925486,33.3210583 C19.2682937,32.6995248 18.8259179,32.1339309 18.2042333,32.0581857 C15.8243844,31.7677538 13.3541253,31.5625918 10.862095,31.4481425 C10.2387473,31.4247084 9.70611231,31.9033693 9.67738661,32.5288337 C9.6488121,33.1546004 10.1326134,33.6849676 10.7582289,33.7136933 L10.7582289,33.7136933 Z" id="Shape"></path>
                        <path d="M30.4784233,39.3498272 C26.7531533,38.2611231 22.6236069,37.4356371 18.2043844,36.8963499 C17.5825486,36.8193952 17.0174082,37.2629806 16.9415119,37.884514 C16.8657667,38.5060475 17.3081425,39.0716415 17.9298272,39.1473866 C22.227041,39.6718575 26.2350324,40.4722462 29.8422246,41.5266307 C29.9485097,41.5576242 30.0555508,41.5724406 30.1607775,41.5724406 C30.6515335,41.5724406 31.1040389,41.2511663 31.2485745,40.7564795 C31.424406,40.1552052 31.0795464,39.5255076 30.4784233,39.3498272 L30.4784233,39.3498272 Z" id="Shape"></path>
                        <path d="M10.7582289,38.5517063 C11.5557451,38.5882937 12.3606695,38.6350108 13.1504752,38.6901944 C13.1773866,38.6921598 13.2041469,38.693067 13.2309071,38.693067 C13.8209935,38.693067 14.3190065,38.2361771 14.3608855,37.6382289 C14.40473,37.0135205 13.9336285,36.4716631 13.3089201,36.4279698 C12.5011231,36.3714255 11.677905,36.3238013 10.8623974,36.2861555 C10.2388985,36.2639309 9.70641469,36.7413823 9.67768898,37.3668467 C9.6488121,37.9926134 10.1326134,38.5229806 10.7582289,38.5517063 L10.7582289,38.5517063 Z" id="Shape"></path>
                        <path d="M29.8422246,31.8506048 C29.9483585,31.8815983 30.0555508,31.8964147 30.1607775,31.8964147 C30.6515335,31.8964147 31.1040389,31.5752916 31.2485745,31.0804536 C31.4242549,30.4793305 31.0793952,29.8496328 30.4782721,29.6738013 C29.6871058,29.442635 28.8593521,29.2187257 28.0182937,29.0085745 C27.4114255,28.856933 26.7951836,29.2261339 26.6432397,29.8337581 C26.4914471,30.4413823 26.8607991,31.0570194 27.4684233,31.2088121 C28.2809071,31.4117063 29.0794816,31.6276026 29.8422246,31.8506048 L29.8422246,31.8506048 Z" id="Shape"></path>
                        <path d="M10.7582289,28.8756803 C14.9039525,29.0658747 18.9229806,29.5080994 22.7037365,30.1898056 C22.7717711,30.2020518 22.8395032,30.2079482 22.9063283,30.2079482 C23.444406,30.2079482 23.9220086,29.8233261 24.0208855,29.2751188 C24.1320086,28.6588769 23.7225918,28.0690929 23.1061987,27.9579698 C19.2273218,27.2584233 15.1077538,26.8048596 10.8622462,26.6101296 C10.2388985,26.5853348 9.7062635,27.0653564 9.6775378,27.6908207 C9.6488121,28.3165875 10.1327646,28.8471058 10.7582289,28.8756803 L10.7582289,28.8756803 Z" id="Shape"></path>
                        <path d="M39.8375594,12.5443629 C39.9427862,12.5443629 40.0499784,12.5295464 40.1561123,12.4985529 C43.417689,11.545162 47.0239741,10.7964795 50.87473,10.2732181 C51.4952052,10.1888553 51.9298704,9.6175162 51.8456587,8.99704104 C51.7612959,8.37656587 51.1904104,7.94190065 50.5694816,8.02611231 C46.607149,8.56464363 42.8895896,9.33691145 39.5200648,10.3217495 C38.9189417,10.4974298 38.5740821,11.1271274 38.7497624,11.7284017 C38.8942981,12.2232397 39.3466523,12.5443629 39.8375594,12.5443629 L39.8375594,12.5443629 Z" id="Shape"></path>
                        <path d="M55.5583801,9.75736501 C55.589676,9.75736501 55.6212743,9.75615551 55.6530238,9.75358531 C56.8325918,9.65606911 58.0395248,9.5788121 59.2402592,9.52362851 C59.8658747,9.495054 60.349676,8.96453564 60.3209503,8.33892009 C60.2922246,7.71330454 59.762311,7.23192225 59.1362419,7.25822894 C57.9079914,7.31462203 56.6732397,7.3936933 55.4661555,7.49347732 C54.8420518,7.5450324 54.377905,8.09278618 54.42946,8.71688985 C54.4784449,9.30924406 54.9743413,9.75736501 55.5583801,9.75736501 L55.5583801,9.75736501 Z" id="Shape"></path>
                        <path d="M39.8375594,22.2203888 C39.9429374,22.2203888 40.0499784,22.2055724 40.1562635,22.1745788 C42.3670842,21.5282505 44.7688553,20.96946 47.2949028,20.5139309 C47.9111447,20.4028078 48.3207127,19.8130238 48.2094384,19.1967819 C48.0983153,18.5803888 47.5085313,18.1712743 46.8922894,18.282095 C44.2877754,18.7518359 41.8073866,19.3292225 39.5199136,19.9977754 C38.9187905,20.1736069 38.5740821,20.8033045 38.7497624,21.4044276 C38.8942981,21.8992657 39.3466523,22.2203888 39.8375594,22.2203888 L39.8375594,22.2203888 Z" id="Shape"></path>
                        <path d="M59.1362419,16.9342549 C56.6442117,17.0487041 54.1739525,17.2538661 51.7941037,17.5442981 C51.172419,17.6200432 50.7300432,18.185486 50.8057883,18.8071706 C50.8759395,19.3822894 51.3648812,19.8039525 51.9300216,19.8039525 C51.9758315,19.8039525 52.022095,19.8010799 52.0686609,19.7953348 C54.3921166,19.5120086 56.8049244,19.3115335 59.240108,19.1998056 C59.8657235,19.1710799 60.3495248,18.6407127 60.3207991,18.0150972 C60.2922246,17.3893305 59.7595896,16.9068898 59.1362419,16.9342549 L59.1362419,16.9342549 Z" id="Shape"></path>
                        <path d="M39.8375594,17.3823758 C39.9429374,17.3823758 40.0499784,17.3675594 40.1561123,17.3365659 C40.9184017,17.1135637 41.7169762,16.8978186 42.5297624,16.694622 C43.1373866,16.5426782 43.5067387,15.9271922 43.354946,15.319568 C43.2031533,14.7119438 42.5869114,14.3422894 41.979892,14.4943844 C41.1383801,14.704838 40.3106263,14.9285961 39.5199136,15.1596112 C38.9187905,15.3354428 38.5739309,15.9651404 38.7496112,16.5662635 C38.8942981,17.0612527 39.3466523,17.3823758 39.8375594,17.3823758 L39.8375594,17.3823758 Z" id="Shape"></path>
                        <path d="M59.1362419,12.0962419 C54.8907343,12.2909719 50.7711663,12.7445356 46.8921382,13.4440821 C46.2757451,13.5552052 45.8663283,14.1449892 45.9774514,14.7612311 C46.0763283,15.3095896 46.5539309,15.6940605 47.0920086,15.6940605 C47.1588337,15.6940605 47.2265659,15.6881641 47.2946004,15.6759179 C51.0753564,14.9940605 55.0943844,14.5518359 59.240108,14.3617927 C59.8657235,14.3332181 60.3495248,13.8026998 60.3207991,13.1770842 C60.2922246,12.5514687 59.762311,12.068121 59.1362419,12.0962419 L59.1362419,12.0962419 Z" id="Shape"></path>
                        <path d="M39.8375594,27.0584017 C39.9429374,27.0584017 40.0499784,27.0435853 40.1562635,27.0125918 C43.7633045,25.9580562 47.7715983,25.1575162 52.0697192,24.6331965 C52.6914039,24.5574514 53.1337797,23.9920086 53.0580346,23.370324 C52.9822894,22.7486393 52.4165443,22.3053564 51.795162,22.3821598 C47.3750324,22.9212959 43.2450324,23.746933 39.5200648,24.8357883 C38.9189417,25.0116199 38.5742333,25.6413175 38.7499136,26.2424406 C38.8942981,26.7372786 39.3466523,27.0584017 39.8375594,27.0584017 L39.8375594,27.0584017 Z" id="Shape"></path>
                        <path d="M59.1362419,21.7722678 C58.317257,21.8099136 57.4946436,21.8573866 56.6910799,21.9139309 C56.0663715,21.9576242 55.5954212,22.4996328 55.6392657,23.1243413 C55.6811447,23.721987 56.1790065,24.1790281 56.7692441,24.1790281 C56.7958531,24.1790281 56.8227646,24.178121 56.849676,24.1761555 C57.6350972,24.1211231 58.4394168,24.0745572 59.2404104,24.0378186 C59.8660259,24.0090929 60.3498272,23.4787257 60.3211015,22.8531102 C60.2922246,22.2273434 59.759892,21.7441469 59.1362419,21.7722678 L59.1362419,21.7722678 Z" id="Shape"></path>
                        <path d="M38.7496112,35.9183153 C38.8942981,36.4131533 39.3466523,36.7342765 39.8374082,36.7342765 C39.9427862,36.7342765 40.0498272,36.71946 40.1561123,36.6884665 C42.366933,36.0421382 44.7687041,35.4833477 47.2947516,35.0278186 C47.9109935,34.9166955 48.3205616,34.3269114 48.2092873,33.7106695 C48.0981641,33.0942765 47.5083801,32.6853132 46.8921382,32.7959827 C44.2876242,33.2657235 41.8072354,33.8431102 39.5197624,34.5116631 C38.9187905,34.6876458 38.5739309,35.3173434 38.7496112,35.9183153 L38.7496112,35.9183153 Z" id="Shape"></path>
                        <path d="M59.1362419,31.4482937 C56.6442117,31.562743 54.1739525,31.767905 51.7941037,32.0583369 C51.172419,32.1340821 50.7300432,32.6995248 50.8057883,33.3212095 C50.8759395,33.8963283 51.3648812,34.3179914 51.9300216,34.3179914 C51.9758315,34.3179914 52.022095,34.3151188 52.0686609,34.3093737 C54.3921166,34.0260475 56.8049244,33.8255724 59.240108,33.7138445 C59.8657235,33.6851188 60.3495248,33.1547516 60.3207991,32.5291361 C60.2922246,31.9035205 59.7595896,31.4231965 59.1362419,31.4482937 L59.1362419,31.4482937 Z" id="Shape"></path>
                        <path d="M51.7939525,36.8963499 C47.37473,37.435486 43.2451836,38.2609719 39.5199136,39.3498272 C38.9187905,39.5255076 38.5739309,40.1552052 38.7496112,40.7564795 C38.8942981,41.2513175 39.3466523,41.5724406 39.8374082,41.5724406 C39.9427862,41.5724406 40.0498272,41.5576242 40.1559611,41.5266307 C43.7633045,40.472095 47.7711447,39.6717063 52.0683585,39.1473866 C52.6900432,39.0716415 53.132419,38.5061987 53.0566739,37.884514 C52.9809287,37.2628294 52.4150324,36.8190929 51.7939525,36.8963499 L51.7939525,36.8963499 Z" id="Shape"></path>
                        <path d="M59.1362419,36.2863067 C58.3207343,36.3238013 57.4976674,36.3714255 56.689568,36.428121 C56.0648596,36.4718143 55.5939093,37.0136717 55.6376026,37.6383801 C55.6794816,38.2361771 56.1773434,38.6932181 56.767581,38.6932181 C56.7941901,38.6932181 56.8211015,38.692311 56.848013,38.6903456 C57.638121,38.635162 58.4428942,38.5884449 59.2402592,38.5518575 C59.8658747,38.5231317 60.349676,37.9927646 60.3209503,37.367149 C60.2922246,36.7415335 59.7595896,36.2619654 59.1362419,36.2863067 L59.1362419,36.2863067 Z" id="Shape"></path>
                        <path d="M39.8375594,31.8964147 C39.9429374,31.8964147 40.0499784,31.8815983 40.1561123,31.8506048 C40.9184017,31.6276026 41.7169762,31.4118575 42.5297624,31.2086609 C43.1373866,31.0567171 43.5067387,30.4412311 43.354946,29.8336069 C43.2031533,29.2259827 42.5869114,28.8567819 41.979892,29.0084233 C41.1383801,29.2188769 40.3106263,29.442635 39.5199136,29.6736501 C38.9187905,29.8494816 38.5739309,30.4791793 38.7496112,31.0803024 C38.8942981,31.5752916 39.3466523,31.8964147 39.8375594,31.8964147 L39.8375594,31.8964147 Z" id="Shape"></path>
                        <path d="M59.1362419,26.6102808 C54.8907343,26.8050108 50.7711663,27.2585745 46.8921382,27.958121 C46.2757451,28.0692441 45.8663283,28.6590281 45.9774514,29.27527 C46.0763283,29.8236285 46.5539309,30.2080994 47.0920086,30.2080994 C47.1588337,30.2080994 47.2265659,30.202203 47.2946004,30.1899568 C51.0753564,29.5080994 55.0943844,29.0658747 59.240108,28.8758315 C59.8657235,28.847257 60.3495248,28.3167387 60.3207991,27.6911231 C60.2922246,27.0655076 59.762311,26.5844276 59.1362419,26.6102808 L59.1362419,26.6102808 Z" id="Shape"></path>
                    </g>
                </g>
            </g>
        </g>
    </g>
</svg>