<?xml version="1.0" encoding="UTF-8" standalone="no"?>
<svg width="65px" height="58px" viewBox="0 0 65 58" version="1.1" xmlns="http://www.w3.org/2000/svg" xmlns:xlink="http://www.w3.org/1999/xlink">
    <!-- Generator: Sketch 3.8.3 (29802) - http://www.bohemiancoding.com/sketch -->
    <title>loudspeaker</title>
    <desc>Created with Sketch.</desc>
    <defs></defs>
    <g id="Page-1" stroke="none" stroke-width="1" fill="none" fill-rule="evenodd">
        <g id="Desktop" transform="translate(-892.000000, -1196.000000)" fill="#A4A3ED">
            <g id="loudspeaker" transform="translate(892.000000, 1196.000000)">
                <g id="Capa_1">
                    <g id="Group">
                        <path d="M54.84375,13.2033789 C54.2828711,13.2033789 53.828125,13.658125 53.828125,14.2190039 L53.828125,16.25 C53.828125,16.8108789 54.2828711,17.265625 54.84375,17.265625 C55.4046289,17.265625 55.859375,16.8108789 55.859375,16.25 L55.859375,14.2190039 C55.859375,13.658125 55.4046289,13.2033789 54.84375,13.2033789 L54.84375,13.2033789 Z" id="Shape"></path>
                        <path d="M65,21.328125 C65,18.0180762 62.9461523,15.0243945 59.921875,13.796123 L59.921875,3.046875 C59.921875,1.3669043 58.5550977,0 56.875,0 L54.8503516,0 L54.8493359,0 L54.84375,0 C54.8353711,0 54.8272461,0.001015625 54.8189941,0.00126953125 C54.7944922,0.00190429688 54.7698633,0.00266601563 54.7453613,0.00495117188 C54.7324121,0.00622070313 54.7198438,0.00850585938 54.7070215,0.0102832031 C54.6868359,0.0129492188 54.6667773,0.0154882813 54.6467187,0.0194238281 C54.6319922,0.02234375 54.6177734,0.0262792969 54.6033008,0.0298339844 C54.5856543,0.0341503906 54.5678809,0.0382128906 54.5503613,0.0434179688 C54.535127,0.0479882813 54.5202734,0.0537011719 54.505293,0.0590332031 C54.489043,0.0647460938 54.472793,0.0702050781 54.4567969,0.0768066406 C54.4411816,0.08328125 54.4262012,0.0906445313 54.4110937,0.0978808594 C54.3963672,0.104863281 54.3815137,0.111337891 54.367041,0.119082031 C54.3504102,0.12796875 54.3344141,0.137998047 54.318291,0.147773438 C54.3061035,0.155263672 54.2936621,0.162119141 54.2816016,0.169990234 C54.2623047,0.182939453 54.2438965,0.19703125 54.2254883,0.21125 C54.217998,0.216962891 54.21,0.221914063 54.2026367,0.228007813 C48.1726172,5.13753906 40.1547656,10.15625 26.40625,10.15625 L7.109375,10.15625 C3.18931641,10.15625 0,13.3454395 0,17.265625 L0,25.390625 C0,29.3108105 3.18931641,32.5 7.109375,32.5 L11.2865137,32.5 L13.9040332,54.3121973 C14.1486719,56.352207 15.8827246,57.890625 17.9374609,57.890625 L21.9562891,57.890625 C23.1171484,57.890625 24.2248145,57.3925879 24.995293,56.5241016 C25.7656445,55.6557422 26.1282227,54.4966602 25.9898437,53.3440527 L23.4884863,32.5 L26.40625,32.5 C40.1547656,32.5 48.1726172,37.5187109 54.2025098,42.4282422 C54.226123,42.4474121 54.2503711,42.4654395 54.275127,42.4821973 C54.2790625,42.4848633 54.2833789,42.4871484 54.2873145,42.4896875 C54.3096582,42.5042871 54.3321289,42.5183789 54.3552344,42.5309473 C54.3641211,42.5358984 54.3733887,42.5399609 54.3825293,42.5446582 C54.4013184,42.5543066 54.4202344,42.5637012 54.4394043,42.5720801 C54.4500684,42.5767773 54.4611133,42.5807129 54.4719043,42.5850293 C54.4901855,42.5922656 54.5084668,42.5991211 54.527002,42.6052148 C54.5386816,42.6090234 54.5504883,42.6124512 54.5624219,42.6158789 C54.5812109,42.6212109 54.6,42.6261621 54.618916,42.6303516 C54.6305957,42.6330176 54.6424023,42.6356836 54.6543359,42.6378418 C54.6752832,42.6417773 54.6963574,42.6448242 54.7174316,42.6474902 C54.7275879,42.6487598 54.7376172,42.6502832 54.7479004,42.6512988 C54.7795117,42.6542188 54.81125,42.656123 54.8429883,42.656123 L54.8432422,42.656123 L54.843623,42.656123 L56.874873,42.656123 C58.5549707,42.656123 59.921748,41.2892188 59.921748,39.609248 L59.921748,28.86 C62.9461523,27.6317285 65,24.6379199 65,21.328125 L65,21.328125 Z M23.9730664,53.5861523 C24.0432715,54.1708984 23.8666797,54.7357129 23.475791,55.1761133 C23.0849023,55.6167676 22.5452246,55.859375 21.9562891,55.859375 L17.9374609,55.859375 C16.9101562,55.859375 16.0431934,55.090166 15.9206836,54.0700977 L15.8916113,53.828125 L20.3125,53.828125 C20.8733789,53.828125 21.328125,53.3733789 21.328125,52.8125 C21.328125,52.2516211 20.8733789,51.796875 20.3125,51.796875 L15.6478613,51.796875 L13.3322363,32.5 L21.4426367,32.5 L23.9730664,53.5861523 L23.9730664,53.5861523 Z M56.875,40.625 L55.859375,40.625 L55.859375,20.3127539 C55.859375,19.751875 55.4046289,19.2971289 54.84375,19.2971289 C54.2828711,19.2971289 53.828125,19.751875 53.828125,20.3127539 L53.828125,39.5439941 C48.3640625,35.3650781 41.2892187,31.4149316 30.46875,30.6158887 L30.46875,17.265625 C30.46875,16.7047461 30.0140039,16.25 29.453125,16.25 C28.8922461,16.25 28.4375,16.7047461 28.4375,17.265625 L28.4375,30.5046777 C27.773916,30.4810645 27.0971289,30.46875 26.40625,30.46875 L7.109375,30.46875 C4.30929688,30.46875 2.03125,28.1907031 2.03125,25.390625 L2.03125,17.265625 C2.03125,14.4655469 4.30929688,12.1875 7.109375,12.1875 L26.40625,12.1875 C27.0971289,12.1875 27.773916,12.1751855 28.4375,12.1515723 L28.4375,13.203125 C28.4375,13.7640039 28.8922461,14.21875 29.453125,14.21875 C30.0140039,14.21875 30.46875,13.7640039 30.46875,13.203125 L30.46875,12.0403613 C41.2892187,11.2413184 48.3640625,7.29104492 53.828125,3.11225586 L53.828125,10.156377 C53.828125,10.7172559 54.2828711,11.172002 54.84375,11.172002 C55.4046289,11.172002 55.859375,10.7172559 55.859375,10.156377 L55.859375,2.03125 L56.875,2.03125 C57.4349902,2.03125 57.890625,2.48688477 57.890625,3.046875 L57.890625,14.4975391 C57.8903711,14.5127734 57.8902441,14.5278809 57.890625,14.5429883 L57.890625,39.609375 C57.890625,40.1693652 57.4349902,40.625 56.875,40.625 L56.875,40.625 Z M59.921875,26.603916 L59.921875,16.052334 C61.76625,17.1258496 62.96875,19.134248 62.96875,21.328125 C62.96875,23.521748 61.76625,25.5304004 59.921875,26.603916 L59.921875,26.603916 Z" id="Shape"></path>
                    </g>
                </g>
            </g>
        </g>
    </g>
</svg>