<?xml version="1.0" encoding="UTF-8" standalone="no"?>
<svg width="64px" height="64px" viewBox="0 0 64 64" version="1.1" xmlns="http://www.w3.org/2000/svg" xmlns:xlink="http://www.w3.org/1999/xlink">
    <!-- Generator: Sketch 3.8.3 (29802) - http://www.bohemiancoding.com/sketch -->
    <title>food-1</title>
    <desc>Created with Sketch.</desc>
    <defs></defs>
    <g id="Page-1" stroke="none" stroke-width="1" fill="none" fill-rule="evenodd">
        <g id="Desktop" transform="translate(-279.000000, -1193.000000)" fill="#74EDD5">
            <g id="food-1" transform="translate(279.000000, 1193.000000)">
                <g id="Capa_1">
                    <g id="Group">
                        <path d="M29.7453448,45.8787931 C26.1815517,45.8787931 23.0660345,44.9956897 20.9277586,42.8574138 L20.9277586,42.8574138 C12.9932759,34.9206897 22.3398276,13.4863793 30.0412069,5.78275862 C37.7493103,-1.92758621 50.2943103,-1.92534483 58.0046552,5.78275862 C65.7127586,13.4908621 65.7127586,26.0358621 58.0046552,33.7462069 C52.3765517,39.3743103 39.4146552,45.8787931 29.7453448,45.8787931 L29.7453448,45.8787931 Z M22.5124138,41.2727586 C29.1737931,47.9296552 49.335,39.242069 56.4177586,32.1615517 C63.2517241,25.3253448 63.2517241,14.2036207 56.4177586,7.36741379 C49.5837931,0.533448276 38.462069,0.531206897 31.6236207,7.36741379 C24.5453448,14.4524138 15.8577586,34.6158621 22.5124138,41.2727586 L22.5124138,41.2727586 L22.5124138,41.2727586 Z" id="Shape"></path>
                        <path d="M14.4658621,63.782931 C12.5718966,63.782931 10.6801724,63.0634483 9.23672414,61.62 C7.90758621,60.2886207 7.15896552,58.5448276 7.09396552,56.6912069 C5.24034483,56.6262069 3.49431034,55.8798276 2.16293103,54.5484483 C0.768793103,53.152069 0,51.2962069 0,49.3193103 C0,47.3446552 0.768793103,45.4887931 2.16517241,44.0924138 C4.89517241,41.3646552 9.61327586,41.2884483 12.4262069,43.9018966 L18.7715517,37.5565517 C19.2086207,37.1194828 19.9191379,37.1194828 20.3562069,37.5565517 C20.7932759,37.9936207 20.7932759,38.7041379 20.3562069,39.1412069 L13.1636207,46.3360345 C12.9327586,46.5646552 12.6144828,46.6856897 12.2939655,46.6632759 C11.9689655,46.6408621 11.6731034,46.4794828 11.4781034,46.2217241 C11.2853448,45.9662069 11.1777586,45.8137931 11.0432759,45.6815517 C9.09327586,43.7293103 5.70431034,43.7315517 3.75431034,45.6793103 C2.77706897,46.652069 2.24137931,47.9453448 2.24137931,49.3215517 C2.24137931,50.6955172 2.77706897,51.9887931 3.74982759,52.9637931 C4.89517241,54.1091379 6.49551724,54.6313793 8.11827586,54.4005172 C8.46568966,54.3534483 8.81982759,54.4677586 9.06862069,54.7187931 C9.31741379,54.9675862 9.4362069,55.3194828 9.38689655,55.6691379 C9.15603448,57.3031034 9.67827586,58.8922414 10.8236207,60.0375862 C12.8318966,62.0458621 16.102069,62.0458621 18.1103448,60.0375862 C20.1186207,58.0293103 20.1186207,54.7613793 18.1103448,52.7508621 C17.9758621,52.6163793 17.827931,52.5110345 17.6822414,52.4012069 C17.4222414,52.2039655 17.2048276,51.8655172 17.1824138,51.5405172 C17.16,51.2155172 17.2227586,50.8568966 17.4536207,50.6282759 L24.6462069,43.4334483 C25.0832759,42.9963793 25.7937931,42.9963793 26.2308621,43.4334483 C26.667931,43.8705172 26.667931,44.5810345 26.2308621,45.0181034 L19.8855172,51.3634483 C22.5774138,54.2593103 22.5124138,58.8048276 19.695,61.6222414 C18.2537931,63.0612069 16.3598276,63.782931 14.4658621,63.782931 L14.4658621,63.782931 Z" id="Shape"></path>
                        <path d="M56.0098276,23.6039655 C55.8282759,23.6039655 55.6444828,23.5591379 55.4741379,23.465 C54.9317241,23.1713793 54.7322414,22.4944828 55.0236207,21.952069 C55.0953448,21.8108621 56.5903448,18.8544828 54.3893103,14.8693103 C54.0912069,14.3291379 54.2884483,13.6455172 54.8286207,13.3474138 C55.3710345,13.0425862 56.0524138,13.2443103 56.3527586,13.7867241 C59.1746552,18.9015517 57.0856897,22.8508621 56.9937931,23.0167241 C56.792069,23.3932759 56.4087931,23.6039655 56.0098276,23.6039655 L56.0098276,23.6039655 Z" id="Shape"></path>
                    </g>
                </g>
            </g>
        </g>
    </g>
</svg>