<?xml version="1.0" encoding="UTF-8" standalone="no"?>
<svg width="60px" height="60px" viewBox="0 0 60 60" version="1.1" xmlns="http://www.w3.org/2000/svg" xmlns:xlink="http://www.w3.org/1999/xlink">
    <!-- Generator: Sketch 3.8.3 (29802) - http://www.bohemiancoding.com/sketch -->
    <title>web</title>
    <desc>Created with Sketch.</desc>
    <defs></defs>
    <g id="Page-1" stroke="none" stroke-width="1" fill="none" fill-rule="evenodd">
        <g id="Desktop" transform="translate(-691.000000, -1194.000000)" fill="#A4A3ED">
            <g id="web" transform="translate(691.000000, 1194.000000)">
                <g id="Capa_1">
                    <g id="Group">
                        <path d="M59.973,26.535 L59.97,26.478 L59.823,26.396 L54,20.975 L54,8.997 L41.135,8.997 L32.542,0.997 C31.116,-0.329 28.883,-0.33 27.457,0.998 L18.865,8.997 L6,8.997 L6,20.975 L0.111,26.457 L0,26.531 L0,26.561 L0,58.869 L0,59.998 L1.129,59.998 L57.256,59.998 L58.871,59.998 L59.32,59.998 L60,59.998 L60,58.869 L60,27.101 L60,26.561 L59.973,26.535 L59.973,26.535 Z M32.072,42.987 L42.024,37.5 L54,30.897 L54,30.897 L58,28.691 L58,57.284 L53.294,54.69 L32.072,42.987 L32.072,42.987 Z M57.31,26.789 L54,28.614 L54,23.707 L57.31,26.789 L57.31,26.789 Z M28.819,2.462 C29.481,1.847 30.519,1.848 31.179,2.461 L38.199,8.997 L21.801,8.997 L28.819,2.462 L28.819,2.462 Z M8,10.997 L16.717,10.997 L43.283,10.997 L52,10.997 L52,19.113 L52,29.715 L33.898,39.697 L30.001,41.846 L8,29.715 L8,19.114 L8,10.997 L8,10.997 Z M6,28.612 L2.692,26.788 L6,23.707 L6,28.612 L6,28.612 Z M2,57.997 L2,28.691 L6,30.897 L6,30.897 L23.82,40.722 L27.929,42.988 L27.929,42.988 L38.245,48.676 L55.152,57.998 L2,57.998 L2,57.997 Z" id="Shape"></path>
                        <path d="M27,17.997 L33,17.997 C33.553,17.997 34,17.55 34,16.997 C34,16.444 33.553,15.997 33,15.997 L27,15.997 C26.447,15.997 26,16.444 26,16.997 C26,17.55 26.447,17.997 27,17.997 L27,17.997 Z" id="Shape"></path>
                        <path d="M42,30.997 L35,30.997 C34.447,30.997 34,31.444 34,31.997 C34,32.55 34.447,32.997 35,32.997 L42,32.997 C42.553,32.997 43,32.55 43,31.997 C43,31.444 42.553,30.997 42,30.997 L42,30.997 Z" id="Shape"></path>
                        <path d="M17,24.997 L22,24.997 C22.553,24.997 23,24.55 23,23.997 C23,23.444 22.553,22.997 22,22.997 L17,22.997 C16.447,22.997 16,23.444 16,23.997 C16,24.55 16.447,24.997 17,24.997 L17,24.997 Z" id="Shape"></path>
                        <path d="M29,23.997 C29,24.55 29.447,24.997 30,24.997 L38,24.997 C38.553,24.997 39,24.55 39,23.997 C39,23.444 38.553,22.997 38,22.997 L30,22.997 C29.447,22.997 29,23.445 29,23.997 L29,23.997 Z" id="Shape"></path>
                        <path d="M26,24.997 C26.26,24.997 26.52,24.887 26.71,24.707 C26.89,24.517 27,24.257 27,23.997 C27,23.726 26.89,23.476 26.71,23.287 C26.34,22.917 25.66,22.917 25.29,23.287 C25.109,23.476 25,23.726 25,23.997 C25,24.257 25.109,24.517 25.29,24.707 C25.479,24.887 25.74,24.997 26,24.997 L26,24.997 Z" id="Shape"></path>
                        <path d="M31,30.997 L21,30.997 C20.447,30.997 20,31.444 20,31.997 C20,32.55 20.447,32.997 21,32.997 L31,32.997 C31.553,32.997 32,32.55 32,31.997 C32,31.444 31.553,30.997 31,30.997 L31,30.997 Z" id="Shape"></path>
                        <path d="M17,32.997 C17.26,32.997 17.52,32.887 17.71,32.707 C17.89,32.517 18,32.257 18,31.997 C18,31.737 17.899,31.487 17.71,31.287 C17.34,30.917 16.67,30.917 16.29,31.287 C16.1,31.477 16,31.727 16,31.997 C16,32.257 16.109,32.517 16.29,32.707 C16.479,32.897 16.74,32.997 17,32.997 L17,32.997 Z" id="Shape"></path>
                        <path d="M42,24.997 C42.26,24.997 42.52,24.887 42.71,24.707 C42.89,24.517 43,24.257 43,23.997 C43,23.737 42.89,23.476 42.71,23.287 C42.33,22.917 41.66,22.917 41.29,23.287 C41.109,23.476 41,23.726 41,23.997 C41,24.257 41.109,24.517 41.29,24.707 C41.479,24.887 41.74,24.997 42,24.997 L42,24.997 Z" id="Shape"></path>
                    </g>
                </g>
            </g>
        </g>
    </g>
</svg>