<?xml version="1.0" encoding="UTF-8" standalone="no"?>
<svg width="50px" height="67px" viewBox="0 0 50 67" version="1.1" xmlns="http://www.w3.org/2000/svg" xmlns:xlink="http://www.w3.org/1999/xlink">
    <!-- Generator: Sketch 3.8.3 (29802) - http://www.bohemiancoding.com/sketch -->
    <title>exercise</title>
    <desc>Created with Sketch.</desc>
    <defs>
        <linearGradient x1="50%" y1="-47.7964255%" x2="50%" y2="249.84153%" id="linearGradient-1">
            <stop stop-color="#74EDD5" offset="0%"></stop>
            <stop stop-color="#A4A3ED" offset="100%"></stop>
        </linearGradient>
    </defs>
    <g id="Page-1" stroke="none" stroke-width="1" fill="none" fill-rule="evenodd">
        <g id="Desktop" transform="translate(-490.000000, -1190.000000)" fill="#A4A3ED">
            <g id="exercise" transform="translate(490.000000, 1190.000000)">
                <g id="Capa_1">
                    <g id="Group">
                        <path d="M12.8328986,22.4308696 C13.0591304,22.5634783 13.3123188,22.6298551 13.5657971,22.6298551 C13.8097101,22.6298551 14.053913,22.5682609 14.273913,22.4450725 C17.5333333,20.6197101 21.2414493,19.6547826 24.9975362,19.6547826 C28.7536232,19.6547826 32.4617391,20.6195652 35.7211594,22.4450725 C36.1698551,22.6963768 36.7182609,22.6910145 37.1621739,22.4310145 C37.605942,22.1708696 37.8785507,21.6950725 37.8785507,21.1807246 L37.8785507,15.2295652 C37.8785507,10.1984058 33.7853623,6.10521739 28.7542029,6.10521739 L21.2408696,6.10521739 C16.2097101,6.10521739 12.1165217,10.1984058 12.1165217,15.2295652 L12.1165217,21.1808696 C12.1163768,21.6949275 12.3891304,22.1708696 12.8328986,22.4308696 L12.8328986,22.4308696 Z M15.0149275,15.2292754 C15.0149275,11.7962319 17.8078261,9.00347826 21.2407246,9.00347826 L28.754058,9.00347826 C32.1869565,9.00347826 34.9798551,11.7963768 34.9798551,15.2292754 L34.9798551,18.8433333 C31.8478261,17.4727536 28.4401449,16.7562319 24.9973913,16.7562319 C21.5547826,16.7562319 18.1471014,17.4727536 15.0149275,18.8434783 L15.0149275,15.2292754 L15.0149275,15.2292754 Z" id="Shape"></path>
                        <path d="M43.9834783,25.5585507 L43.9834783,15.2292754 C43.9834783,6.83188406 37.1515942,0 28.754058,0 L21.2407246,0 C12.8433333,0 6.01144928,6.83188406 6.01144928,15.2292754 L6.01144928,25.5584058 C2.20652174,30.0481159 0.117246377,35.7353623 0.117246377,41.6363768 C0.117246377,55.3553623 11.2784058,66.5166667 24.9973913,66.5166667 C38.7163768,66.5166667 49.8775362,55.3555072 49.8775362,41.6363768 C49.8776812,35.7353623 47.7884058,30.0481159 43.9834783,25.5585507 L43.9834783,25.5585507 Z M24.9973913,63.6181159 C12.8766667,63.6181159 3.0157971,53.7571014 3.0157971,41.6363768 C3.0157971,36.2585507 4.97956522,31.0821739 8.54521739,27.0605797 C8.78028986,26.7955072 8.91014493,26.4534783 8.91014493,26.0991304 L8.91014493,15.2292754 C8.91014493,8.43014493 14.4415942,2.89855072 21.2408696,2.89855072 L28.7542029,2.89855072 C35.5534783,2.89855072 41.0850725,8.43014493 41.0850725,15.2292754 L41.0850725,26.0991304 C41.0850725,26.4534783 41.2149275,26.7955072 41.45,27.0605797 C45.0156522,31.082029 46.9792754,36.2585507 46.9792754,41.6363768 C46.9791304,53.7571014 37.1181159,63.6181159 24.9973913,63.6181159 L24.9973913,63.6181159 Z" id="Shape"></path>
                        <path d="M30.0443478,22.2217391 C28.4044928,21.7971014 26.7065217,21.5817391 24.9975362,21.5817391 C24.1971014,21.5817391 23.5482609,22.2305797 23.5482609,23.0310145 C23.5482609,23.8314493 24.1971014,24.4802899 24.9975362,24.4802899 C26.4615942,24.4802899 27.9150725,24.6644928 29.3178261,25.0276812 C29.4397101,25.0592754 29.5618841,25.0743478 29.6821739,25.0743478 C30.3268116,25.0743478 30.9150725,24.6410145 31.0842029,23.9881159 C31.2846377,23.2133333 30.8191304,22.4224638 30.0443478,22.2217391 L30.0443478,22.2217391 Z" id="Shape"></path>
                        <path d="M35.5657971,24.5856522 C34.8855072,24.1637681 33.9921739,24.3730435 33.5702899,25.0533333 C33.1484058,25.7334783 33.3578261,26.6269565 34.037971,27.0488406 C39.1331884,30.2091304 42.1750725,35.6705797 42.1750725,41.657971 C42.1750725,42.4584058 42.823913,43.1072464 43.6243478,43.1072464 C44.4247826,43.1072464 45.0736232,42.4584058 45.0736232,41.657971 C45.0737681,34.6604348 41.5194203,28.2782609 35.5657971,24.5856522 L35.5657971,24.5856522 Z" id="Shape"></path>
                        <path d="M24.9973913,58.8356522 C23.0250725,58.8356522 21.0918841,58.5046377 19.2517391,57.8515942 C18.4976812,57.584058 17.6689855,57.9784058 17.4011594,58.7327536 C17.1334783,59.4871014 17.527971,60.3155072 18.2823188,60.5831884 C20.4344928,61.3468116 22.6937681,61.734058 24.9972464,61.734058 C25.7976812,61.734058 26.4465217,61.0852174 26.4465217,60.2847826 C26.4465217,59.4843478 25.7978261,58.8356522 24.9973913,58.8356522 L24.9973913,58.8356522 Z" id="Shape"></path>
                        <path d="M15.3995652,55.9063768 C10.6533333,52.7024638 7.81985507,47.375942 7.81985507,41.657971 C7.81985507,40.8575362 7.17101449,40.2086957 6.37057971,40.2086957 C5.57014493,40.2086957 4.92130435,40.8575362 4.92130435,41.657971 C4.92130435,48.3405797 8.23217391,54.5650725 13.7778261,58.3086957 C14.0265217,58.4765217 14.3084058,58.5569565 14.5873913,58.5569565 C15.0527536,58.5569565 15.51,58.3331884 15.7898551,57.9184058 C16.2376812,57.2550725 16.0628986,56.3542029 15.3995652,55.9063768 L15.3995652,55.9063768 Z" id="Shape"></path>
                    </g>
                </g>
            </g>
        </g>
    </g>
</svg>